<?xml version="1.0" encoding="UTF-8" standalone="no"?>
<!-- Created with Inkscape (http://www.inkscape.org/) -->

<svg
   xmlns:dc="http://purl.org/dc/elements/1.1/"
   xmlns:cc="http://creativecommons.org/ns#"
   xmlns:rdf="http://www.w3.org/1999/02/22-rdf-syntax-ns#"
   xmlns:svg="http://www.w3.org/2000/svg"
   xmlns="http://www.w3.org/2000/svg"
   xmlns:sodipodi="http://sodipodi.sourceforge.net/DTD/sodipodi-0.dtd"
   xmlns:inkscape="http://www.inkscape.org/namespaces/inkscape"
   width="28.222221mm"
   height="28.222221mm"
   viewBox="0 0 99.999997 99.999997"
   id="svg2"
   version="1.1"
   inkscape:version="0.91 r13725"
   sodipodi:docname="logo.svg">
  <defs
     id="defs4" />
  <sodipodi:namedview
     id="base"
     pagecolor="#ffffff"
     bordercolor="#666666"
     borderopacity="1.0"
     inkscape:pageopacity="0.0"
     inkscape:pageshadow="2"
     inkscape:zoom="2.8"
     inkscape:cx="-58.750006"
     inkscape:cy="30.562693"
     inkscape:document-units="px"
     inkscape:current-layer="layer1"
     showgrid="false"
     fit-margin-top="0"
     fit-margin-left="0"
     fit-margin-right="0"
     fit-margin-bottom="0"
     inkscape:window-width="1366"
     inkscape:window-height="719"
     inkscape:window-x="-1"
     inkscape:window-y="-10"
     inkscape:window-maximized="1" />
  <metadata
     id="metadata7">
    <rdf:RDF>
      <cc:Work
         rdf:about="">
        <dc:format>image/svg+xml</dc:format>
        <dc:type
           rdf:resource="http://purl.org/dc/dcmitype/StillImage" />
        <dc:title />
      </cc:Work>
    </rdf:RDF>
  </metadata>
  <g
     inkscape:label="Layer 1"
     inkscape:groupmode="layer"
     id="layer1"
     transform="translate(-122.85714,-495.21936)">
    <path
       style="fill:#45145a;fill-opacity:1"
       d="M 0 0 L 0 100 L 100 100 L 100 0 L 0 0 z "
       transform="translate(122.85714,495.21936)"
       id="rect3340" />
    <g
       style="font-style:normal;font-weight:normal;font-size:40px;line-height:125%;font-family:sans-serif;letter-spacing:0px;word-spacing:0px;fill:#000000;fill-opacity:1;stroke:none;stroke-width:1px;stroke-linecap:butt;stroke-linejoin:miter;stroke-opacity:1"
       id="text3336"
       transform="matrix(1.5051519,0,0,1.5051519,-89.728835,-276.41498)">
      <path
         d="m 154.88281,530.38953 10.09766,26.97265 -3.8086,0 -6.13281,-16.17187 -7.53906,16.17187 -3.80859,0 9.58984,-20.97656 -1.44531,-3.86719 q -0.91797,-2.46093 -3.00782,-2.46093 l -1.875,0 0,-3.08594 2.28516,0.0391 q 4.41406,0.0586 5.64453,3.37891 z"
         style="font-style:normal;font-variant:normal;font-weight:normal;font-stretch:normal;font-family:'Latin Modern Mono';-inkscape-font-specification:'Latin Modern Mono';fill:#bde350;fill-opacity:1"
         id="path4145"
         inkscape:connector-curvature="0" />
      <path
         d="m 184.89187,545.12218 c 0,-0.52 -0.32,-0.96 -0.72,-1.24 l -13.32,-8.36 c -0.56,-0.36 -0.68,-0.4 -1.04,-0.4 -0.64,0 -1.4,0.48 -1.4,1.4 0,0.76 0.52,1.08 0.96,1.36 l 11.48,7.24 -11.48,7.24 c -0.44,0.28 -0.96,0.6 -0.96,1.36 0,0.92 0.76,1.4 1.4,1.4 0.36,0 0.48,-0.04 1.04,-0.4 l 13.16,-8.28 c 0.36,-0.24 0.88,-0.56 0.88,-1.32 z"
         style="font-style:normal;font-variant:normal;font-weight:normal;font-stretch:normal;font-family:'Latin Modern Mono';-inkscape-font-specification:'Latin Modern Mono';fill:#868686;fill-opacity:1"
         id="path4147"
         inkscape:connector-curvature="0" />
      <path
         d="m 205.9075,562.64218 c 0,-1.4 -1.4,-1.4 -1.88,-1.4 l -12.72,0 c -0.48,0 -1.88,0 -1.88,1.4 0,1.4 1.4,1.4 1.88,1.4 l 12.72,0 c 0.48,0 1.88,0 1.88,-1.4 z"
         style="font-style:normal;font-variant:normal;font-weight:normal;font-stretch:normal;font-family:'Latin Modern Mono';-inkscape-font-specification:'Latin Modern Mono';fill:#868686;fill-opacity:1"
         id="path4149"
         inkscape:connector-curvature="0" />
    </g>
  </g>
</svg>
